<?xml version="1.0" standalone="no"?><!DOCTYPE svg PUBLIC "-//W3C//DTD SVG 1.1//EN" "http://www.w3.org/Graphics/SVG/1.1/DTD/svg11.dtd"><svg class="icon" height="180" viewBox="0 0 1024 1024" version="1.1" xmlns="http://www.w3.org/2000/svg"><path d="M958.345186 504.436744c0-0.590448 0.081864-1.152243 0.081864-1.733481 0-0.590448-0.081864-1.153266-0.081864-1.734504v3.467985z m-446.560592 380.556319c-166.308747 0-307.418578-106.361423-359.914186-254.691703h200.439078c17.615193 0 31.893384-14.292518 31.893384-31.914874 0-17.588587-14.278191-31.880081-31.893384-31.880081H97.132736s-0.00921 0.00921-0.01842 0.009209c-3.731998 0-7.173376 0.87288-10.437723 2.106988-1.088798 0.381693-2.142803 0.717338-3.169179 1.208524a32.68133 32.68133 0 0 0-6.329149 4.267187c-4.371564 3.586688-7.785314 8.072863-9.756201 13.493316-1.352811 3.350304-2.178619 6.946202-2.178619 10.796904v255.180843c0 17.615193 14.283308 31.914874 31.897477 31.914874s31.897478-14.300704 31.897478-31.914874v-122.254392c77.856205 130.378419 219.806171 217.936591 382.749264 217.936591 225.009683 0 410.629241-166.508291 441.58937-382.917086h-65.041342c-30.358425 180.780343-187.15861 318.658573-376.551098 318.658574zM65.234235 500.885871c0 0.61296-0.090051 1.198292-0.090051 1.816369 0 0.611937 0.090051 1.194198 0.090051 1.806135v-3.622504z m446.550359-380.47957c166.32512 0 307.440068 106.366539 359.926466 254.699889H671.267888c-17.615193 0-31.893384 14.291494-31.893384 31.884175l0.005117 0.018419s-0.005117 0.01842-0.005117 0.026606c0 9.942443 4.835122 18.463514 11.984962 24.306592 5.498224 4.498454 12.249999 7.563256 19.912516 7.563256h255.174703c0.091074 0 0.171915-0.027629 0.264013-0.027629 0.053212 0 0.099261 0.027629 0.144286 0.027629 0.228197 0 0.408299-0.11768 0.626264-0.12689 3.178389-0.10847 6.148024-0.789992 8.972348-1.807158 12.8384-4.126994 22.299889-15.748682 22.299889-29.963429 0-0.726547-0.363274-1.335415-0.408299-2.051729V151.86478c0-17.646915-14.282285-31.915897-31.897478-31.915897-17.613146 0-31.900547 14.268982-31.900547 31.915897v122.596175C816.845475 143.864572 674.877089 56.143695 511.784594 56.143695c-224.99945 0-410.625148 166.533874-441.59244 382.922202h65.047482C165.594991 258.285554 322.396199 120.406301 511.784594 120.406301z" /></svg>